<?xml version="1.0" encoding="utf-8"?>
<!-- Generator: Adobe Illustrator 22.1.0, SVG Export Plug-In . SVG Version: 6.00 Build 0)  -->
<svg version="1.1" id="Layer_1" xmlns="http://www.w3.org/2000/svg" xmlns:xlink="http://www.w3.org/1999/xlink" x="0px" y="0px"
	 viewBox="0 0 16 16" style="enable-background:new 0 0 16 16;" xml:space="preserve">
<path fill="#3e3d40" d="M14.9,1.1c-1.4-1.4-3.7-1.4-5.2,0L2.2,8.6C2,8.8,1.9,9.1,1.9,9.3c0,0.2,0.1,0.4,0.2,0.6l-1.7,2.2c-0.3,0.4-0.3,1,0.1,1.3
	l0.2,0.2l-0.3,0.3c-0.4,0.4-0.4,1.1,0,1.5l0.2,0.2v0c0.4,0.4,1,0.4,1.5,0l0.3-0.3c0,0,0,0,0,0c0.2,0.3,0.5,0.4,0.8,0.4
	c0.2,0,0.4-0.1,0.6-0.2l2.2-1.7c0,0,0,0,0,0c0.2,0.1,0.4,0.2,0.6,0.2c0,0,0,0,0,0c0.3,0,0.5-0.1,0.7-0.3l7.6-7.6
	C16.3,4.8,16.3,2.5,14.9,1.1z M4.6,12.5l-1.2,0.9l-0.8-0.8l0.9-1.2L4.6,12.5z M4.3,9.3l6.9-6.9c0.6-0.6,1.7-0.6,2.3,0
	C13.8,2.8,14,3.2,14,3.6c0,0.4-0.2,0.9-0.5,1.2l-6.9,6.9L4.3,9.3z"/>
</svg>
