<?xml version="1.0" encoding="UTF-8"?>
<svg width="23px" height="20px" viewBox="0 0 23 20" version="1.1" xmlns="http://www.w3.org/2000/svg" xmlns:xlink="http://www.w3.org/1999/xlink">
    <!-- Generator: Sketch 51.2 (57519) - http://www.bohemiancoding.com/sketch -->
    <title>Heart_outline</title>
    <desc>Created with Sketch.</desc>
    <defs></defs>
    <g id="FxA" stroke="none" stroke-width="1" fill="none" fill-rule="evenodd">
        <g id="#4791" transform="translate(-855.000000, -303.000000)" fill="#2A2A2D" fill-rule="nonzero">
            <g id="Group-7" transform="translate(516.000000, 277.000000)">
                <g id="Group-2-Copy-2" transform="translate(326.000000, 12.000000)">
                    <g id="Heart_outline" transform="translate(13.000000, 14.000000)">
                        <path d="M20.5921875,1.48 C17.9957031,-0.68 13.9841797,-0.355555556 11.5,2.14666667 C9.01582031,-0.355555556 5.00429687,-0.684444444 2.4078125,1.48 C-0.9703125,4.29333333 -0.476171875,8.88 1.93164062,11.3111111 L9.8109375,19.2533333 C10.2601562,19.7066667 10.8621094,19.96 11.5,19.96 C12.1423828,19.96 12.7398437,19.7111111 13.1890625,19.2577778 L21.0683594,11.3155556 C23.4716797,8.88444444 23.9748047,4.29777778 20.5921875,1.48 Z M19.5320312,9.81333333 L11.6527344,17.7555556 C11.5449219,17.8622222 11.4550781,17.8622222 11.3472656,17.7555556 L3.46796875,9.81333333 C1.82832031,8.16 1.49589844,5.03111111 3.79589844,3.11555556 C5.54335937,1.66222222 8.23867187,1.88 9.92773437,3.58222222 L11.5,5.16888889 L13.0722656,3.58222222 C14.7703125,1.87111111 17.465625,1.66222222 19.2041016,3.11111111 C21.4996094,5.02666667 21.1582031,8.17333333 19.5320312,9.81333333 Z" id="Shape"></path>
                    </g>
                </g>
            </g>
        </g>
    </g>
</svg>