<?xml version="1.0" encoding="utf-8"?>
<!-- Generator: Adobe Illustrator 22.1.0, SVG Export Plug-In . SVG Version: 6.00 Build 0)  -->
<svg version="1.1" id="Layer_1" xmlns="http://www.w3.org/2000/svg" xmlns:xlink="http://www.w3.org/1999/xlink" x="0px" y="0px"
	 viewBox="0 0 16 16" style="enable-background:new 0 0 16 16;" xml:space="preserve">
<path fill="#3e3d40" d="M14.3,2.1L14.3,2.1C12.5,0.6,9.8,0.7,8,2.4C6.2,0.7,3.5,0.6,1.7,2.1C0.7,2.9,0.1,4.1,0,5.4c-0.1,1.3,0.4,2.7,1.4,3.6
	l5.3,5.4C7,14.8,7.5,15,8,15c0.5,0,1-0.2,1.3-0.5l5.3-5.4c0.9-0.9,1.4-2.3,1.4-3.6C15.9,4.1,15.3,2.9,14.3,2.1z M13,3.5
	c0.8,0.7,1,1.5,1,2c0,0.8-0.3,1.6-0.8,2.2L8,13L2.8,7.7C2.2,7.2,1.9,6.3,1.9,5.5c0-0.5,0.2-1.3,1-2C3.4,3.1,4,2.9,4.6,2.9
	c0.8,0,1.5,0.3,2.1,0.9L8,5.1l1.2-1.2C10.3,2.8,12,2.6,13,3.5z"/>
</svg>
